<?xml version="1.0" encoding="UTF-8"?>
<svg data-name="UU logo" version="1.1" viewBox="0 0 544.25 127.56"
  xmlns="http://www.w3.org/2000/svg">
  <defs>
    <clipPath id="clippath">
      <path
        d="m72.29 90.78c14.87 0 26.93-12.06 26.93-26.93s-12.06-26.93-26.93-26.93-26.93 12.06-26.93 26.93 12.06 26.93 26.93 26.93z"
        fill="none" />
    </clipPath>
  </defs>
  <g>
    <path
      d="m70.865 36.957c-0.4615 0.024443-0.91958 0.062273-1.375 0.10938 0.46027-0.047603 0.9242-0.084655 1.3906-0.10938-0.005169 2.71e-4 -0.010456-2.74e-4 -0.015625 0zm-1.375 0.10938-0.019531-0.015625-0.86133 0.10938-0.021484 0.027344 1.0918 16.193-6.5605-14.855c0.01217-0.00441 0.02493-0.007327 0.037109-0.011719l-0.005859-0.003906-0.82031 0.30078-0.013672 0.027344v0.001953l4.9434 15.471-9.9219-12.857c0.010204-0.006827 0.021036-0.012718 0.03125-0.019531l-0.019532-0.003906-0.71875 0.5-0.003906 0.023437 0.001953-0.001953 8.502 13.838-12.717-10.105c0.007776-0.008503 0.015651-0.016899 0.023438-0.025391l-0.017578 0.001953-0.58008 0.65039 0.001953 0.027344c0.001192-0.00139 0.002714-0.002517 0.003906-0.003907l11.564 11.406-14.768-6.7793c0.005039-0.009223 0.010576-0.018129 0.015625-0.027344l-0.017578 0.005859-0.40039 0.77148 0.009766 0.029296 13.949 8.2988-15.955-3.0449c0.001732-0.006596 0.004122-0.012938 0.005859-0.019532l-0.009766 0.00586-0.21094 0.83984 0.013672 0.019532 15.537 4.7207-16.209 0.86523c1.53e-4 -0.009848 0.001789-0.019451 0.001953-0.029297l-0.013672 0.013672v0.86914l0.011719 0.013672 16.209 0.86719-15.533 4.7168c-0.001192-0.005211-0.002717-0.010412-0.003906-0.015625l-0.003907 0.007813 0.20117 0.8418 0.00586 0.003906 15.953-3.0449-13.953 8.3008c-6.56e-4 -0.001297-0.001298-0.002609-0.001953-0.003906l-0.003907 0.013672 0.4082 0.76562 14.762-6.7754-11.564 11.395c-0.001521-0.001774-0.002385-0.004085-0.003906-0.005859l-0.001953 0.021484 0.58008 0.64844h0.007812c-0.004355-0.004755-0.00932-0.008914-0.013672-0.013672l12.717-10.105-8.502 13.84 0.001953 0.009766 0.71875 0.5 0.007813-0.001954c-0.006309-0.004211-0.013227-0.0075-0.019531-0.011718l9.9219-12.855-4.9395 15.459 0.009766 0.019532 0.78711 0.29883 6.5625-14.857-1.0918 16.189 0.021484 0.029297 0.8418 0.097656 2.8184-16.008 2.8184 15.996 0.021484 0.015625 0.86133-0.10156 0.007813-0.009766c-0.015127 0.002074-0.029788 0.005763-0.044922 0.007813l-1.0938-16.227 6.5664 14.869 0.023438 0.009766 0.80078-0.30274-4.9512-15.486 9.9199 12.854 0.03125 0.005859 0.71875-0.49023 0.001953-0.011719c-0.009843 0.007053-0.019444 0.014444-0.029297 0.021484l-8.5117-13.859 12.727 10.121 0.023437-0.001953 0.57031-0.64844v-0.011718c-0.0051 0.005943-0.010521 0.011639-0.015625 0.017578l-11.584-11.416 14.766 6.7793 0.033204-0.009766 0.41016-0.76953-0.001953-0.007812c-0.005239 0.010375-0.010374 0.020882-0.015625 0.03125l-13.992-8.3242 15.982 3.0508 0.017578-0.009765 0.20898-0.85156-0.001953-0.003906c-0.002656 0.011652-0.00514 0.023509-0.007812 0.035156l-15.58-4.7305 16.26-0.87109 0.011719-0.009765v-0.86914l-0.011719-0.011718c1.74e-4 0.01049 0.001792 0.020755 0.001954 0.03125l-16.262-0.86914 15.584-4.7344 0.005859-0.00586-0.20898-0.84961-0.001953-0.001953c0.001373 0.005205 0.002537 0.010419 0.003906 0.015625l-16.002 3.0547 13.996-8.3262c6.56e-4 0.001296 0.001297 0.00261 0.001953 0.003906l0.001953-0.005859-0.40039-0.77148-0.00586-0.001953c0.001128 0.002059 0.002779 0.0038 0.003906 0.005859l-14.797 6.7969 11.584-11.428c0.004832 0.005623 0.008843 0.011951 0.013672 0.017578l0.001953-0.019531-0.57031-0.65039-0.019531-0.001953c0.001245 0.001358 0.002662 0.002548 0.003906 0.003906l-12.734 10.127 8.5117-13.859c0.007947 0.005677 0.015498 0.011891 0.023437 0.017578l-0.005859-0.027344-0.70898-0.49023-0.019531 0.003906c0.001203 8.03e-4 0.002702 0.001149 0.003906 0.001953l-9.9355 12.875 4.9492-15.488c0.011148 0.004432 0.022061 0.009225 0.033203 0.013672l-0.011719-0.025391-0.82031-0.30078-0.003907 0.003906-6.5664 14.867 1.0957-16.207c0.009797 0.001335 0.019503 0.002561 0.029297 0.003906l-0.013672-0.017578-0.87109-0.10938-0.017578 0.013672c0.005829 6.01e-4 0.01175 0.001349 0.017578 0.001953l-2.8203 16.004-2.8184-16.002c0.00969-0.001012 0.019603-9.5e-4 0.029296-0.001953zm14.041 2.3145c0.26595 0.1221 0.52589 0.25442 0.78711 0.38477-0.26112-0.13031-0.52126-0.2627-0.78711-0.38477zm1.2812 0.62891c0.41295 0.21674 0.81884 0.44429 1.2188 0.68164-0.39982-0.23728-0.8059-0.46496-1.2188-0.68164zm8.8008 7.4062c0.28597 0.36948 0.56313 0.7466 0.83008 1.1309-0.26725-0.38483-0.54374-0.76085-0.83008-1.1309zm-47.639 10.764c-0.07287 0.33948-0.14515 0.6794-0.20508 1.0234 0.059998-0.34401 0.13219-0.68397 0.20508-1.0234zm21.725 1.0605h9.2109v7.1094h-0.019531c0 1.16-0.94156 2.0996-2.1016 2.0996h-0.97852c-0.51 0-0.96062 0.31172-1.1406 0.76172h-0.75c-0.19-0.45-0.63063-0.76172-1.1406-0.76172h-0.97852c-1.16 0-2.1016-0.93961-2.1016-2.0996v-7.1094zm0.85938 0.85938 7.1133 7.1211c0.22146-0.22467 0.35742-0.53307 0.35742-0.87109v-6.25h-7.4707zm-23.096 5.9492c0.029375 0.36144 0.059981 0.72282 0.10352 1.0801-0.043563-0.35722-0.074113-0.71868-0.10352-1.0801zm53.348 2.4512c-0.051421 0.29424-0.11496 0.5841-0.17578 0.875 0.060766-0.29068 0.1244-0.58098 0.17578-0.875zm-2.8867 8.2637c-0.22677 0.41405-0.46499 0.82072-0.71289 1.2207 0.24778-0.39987 0.4862-0.80679 0.71289-1.2207zm-5.7793 7.2363c-0.25285 0.22359-0.51424 0.43819-0.77539 0.65234 0.26127-0.21427 0.52243-0.42863 0.77539-0.65234zm-4.1133 3.0078c-0.40114 0.23814-0.80838 0.46617-1.2227 0.68359 0.41403-0.21733 0.82174-0.44558 1.2227-0.68359zm-16.551 3.623c0.4615 0.047913 0.92682 0.084524 1.3945 0.10938-0.46804-0.025121-0.93266-0.061423-1.3945-0.10938z"
      fill="#fff" />
    <path
      d="m72.29 90.78c14.87 0 26.93-12.06 26.93-26.93s-12.06-26.93-26.93-26.93-26.93 12.06-26.93 26.93 12.06 26.93 26.93 26.93z"
      fill="none" />
    <g clip-path="url(#clippath)" fill="none">
      <path
        d="m90.13 43.46-2.04 2.35c0.42 0.37 0.83 0.75 1.22 1.14l-0.61 0.6c-0.6-0.6-1.22-1.17-1.88-1.7l2.51-3.07m8.1 10.95-3.7 1.48c0.12 0.28 0.23 0.58 0.33 0.86l3.75-1.33m1.48 6.87-3.07-0.62 2.84-1.3-0.18-1.04-3.71 1.93c0.05 0.36 0.09 0.72 0.13 1.08l4.05 0.95m-1.22 9.37-0.95-0.3c-0.1 0.31-0.2 0.61-0.31 0.92l-2.81-1.01c-0.1 0.28-0.21 0.58-0.32 0.86l2.76 1.12c-0.12 0.31-0.25 0.61-0.38 0.91l0.92 0.41m-2.14 3.89-3.32-2.21c-0.16 0.25-0.35 0.52-0.52 0.76l3.22 2.33m-2.89 3.39-0.7-0.71c-0.23 0.23-0.46 0.45-0.7 0.67l-2.02-2.2c-0.22 0.2-0.46 0.42-0.69 0.61l1.93 2.27c-0.25 0.21-0.51 0.42-0.76 0.63l0.62 0.78m-3.7 2.46-1.92-3.5c-0.26 0.15-0.54 0.29-0.81 0.43l1.78 3.57m-7.58 2.47-0.16-0.99c0.52-0.09 1.04-0.19 1.62-0.33l-0.16-0.65c-0.52 0.12-0.98 0.21-1.44 0.29l-0.13-0.76c0.44-0.08 0.88-0.17 1.38-0.28l-0.17-0.66c-0.53 0.12-1.01 0.22-1.49 0.3l-0.14-0.84c0.78-0.13 1.55-0.3 2.32-0.52l0.29 1.01c0.41-0.12 0.83-0.24 1.23-0.38l0.2-0.78 0.6 1.35-0.78 2.5m-0.64-0.6 0.42-1.59c-0.28 0.09-0.57 0.17-0.84 0.25l0.37 1.35h0.05zm-12.99 1.06 0.88-3.89c-0.3-0.07-0.61-0.14-0.9-0.22l-1.03 3.85m-4.5-1.64 1.7-3.6c-0.77-0.36-1.51-0.76-2.24-1.2l-0.44 0.73c0.48 0.29 0.96 0.56 1.46 0.82l-1.43 2.78m-4.58-3 2.5-3.08c-0.66-0.53-1.29-1.1-1.88-1.7l-0.61 0.6c0.39 0.4 0.8 0.78 1.22 1.14l-2.05 2.34m-5.02-5.83 3-0.88-1.91 2.47 0.65 0.83 2.38-3.43c-0.21-0.29-0.42-0.59-0.62-0.89l-4.03 1.04m-3.29-8.88 0.98-0.18c-0.06-0.32-0.11-0.64-0.15-0.96l2.95-0.42c-0.04-0.3-0.08-0.62-0.11-0.91l-2.96 0.3c-0.03-0.33-0.06-0.66-0.08-0.99l-0.99 0.06m-0.05-3.36 4.01 0.23c0.02-0.31 0.04-0.61 0.07-0.92l-1.49-0.15s0-0.1 0.02-0.15c0.05-0.27 0.37-0.47 0.72-0.6 0.28-0.11 0.9-0.27 0.9-0.27 0.05-0.35 0.1-0.68 0.19-1.03 0 0-1.05 0.36-1.43 0.58-0.24 0.14-0.37 0.21-0.52 0.38h-0.02c-0.01-0.62-0.37-1-0.95-1.04-0.7-0.05-1.07 0.58-1.17 1.35h-0.17m1.4-0.34c0.39 0.04 0.44 0.41 0.41 0.65-0.02 0.14-0.03 0.3-0.05 0.43l-0.95-0.1c0.02-0.16 0.02-0.3 0.04-0.45 0.04-0.4 0.24-0.57 0.56-0.53zm0.02-5.56 3.26 2.88c0.09-0.33 0.19-0.66 0.3-0.98l-0.71-0.57c0.15-0.43 0.31-0.85 0.48-1.27l0.91 0.04c0.14-0.32 0.29-0.65 0.44-0.97l-4.3-0.12m0.62 0.84 1.56 0.13c-0.11 0.28-0.22 0.56-0.32 0.84l-1.25-0.96zm5.13-9.62 2.85 2.78c0.19-0.2 0.39-0.39 0.59-0.59l-1.77-1.85 2.81 0.93c0.26-0.22 0.53-0.44 0.8-0.64l-2.37-3.19-0.79 0.62 1.68 2.06-2.91-0.97m22.71-3.02c0.34 0.21 0.72 0.4 1.11 0.5 0.83 0.2 1.66 0.03 1.89-0.89 0.13-0.53-0.04-0.97-0.94-1.43-0.41-0.2-0.49-0.35-0.45-0.51 0.06-0.24 0.27-0.36 0.74-0.25 0.2 0.05 0.53 0.2 0.75 0.35l0.44-0.62c-0.35-0.24-0.71-0.43-1.13-0.54-0.71-0.17-1.61 0-1.81 0.81-0.18 0.73 0.21 1.06 0.62 1.3s0.84 0.38 0.75 0.72c-0.09 0.35-0.42 0.33-0.72 0.26-0.27-0.06-0.62-0.25-0.83-0.37zm5.55-0.3c-0.52 0.99-0.27 2.17 0.9 2.78 1.16 0.61 2.27 0.15 2.79-0.84s0.27-2.16-0.89-2.77-2.27-0.15-2.79 0.84zm0.92 0.48c0.39-0.75 0.99-0.88 1.5-0.61s0.75 0.83 0.35 1.58c-0.39 0.75-0.99 0.88-1.5 0.61s-0.74-0.83-0.35-1.58zm12.46 24.08c-0.17 0.36-0.31 0.76-0.36 1.16-0.1 0.85 0.17 1.65 1.11 1.77 0.54 0.06 0.96-0.15 1.3-1.11 0.15-0.44 0.29-0.53 0.45-0.51 0.24 0.03 0.39 0.23 0.34 0.7-0.02 0.21-0.13 0.55-0.26 0.79l0.68 0.37c0.2-0.38 0.34-0.76 0.39-1.19 0.09-0.72-0.2-1.6-1.02-1.7-0.74-0.09-1.03 0.34-1.22 0.77s-0.27 0.88-0.63 0.84-0.38-0.38-0.34-0.69c0.03-0.27 0.17-0.64 0.27-0.87l-0.72-0.34zm-44.32 8.04c-0.02-0.4-0.08-0.82-0.23-1.2-0.31-0.8-0.92-1.38-1.81-1.04-0.51 0.19-0.78 0.58-0.64 1.58 0.07 0.45-0.01 0.6-0.16 0.66-0.23 0.09-0.45-0.02-0.62-0.46-0.07-0.2-0.14-0.55-0.14-0.82h-0.77c0 0.41 0.05 0.82 0.2 1.22 0.26 0.68 0.92 1.32 1.69 1.03 0.7-0.27 0.75-0.78 0.72-1.25-0.04-0.47-0.17-0.9 0.17-1.03s0.51 0.16 0.62 0.45c0.1 0.25 0.15 0.65 0.16 0.89l0.79-0.04zm7.7-30.66c0.52 0.99 1.63 1.45 2.79 0.84s1.41-1.78 0.89-2.77-1.63-1.45-2.79-0.84-1.42 1.78-0.9 2.77zm0.92-0.48c-0.39-0.75-0.16-1.31 0.35-1.58s1.11-0.14 1.5 0.61 0.16 1.31-0.35 1.58-1.11 0.14-1.5-0.61zm5.69-0.51c0.4 0.03 0.83 0.02 1.22-0.08 0.83-0.21 1.49-0.74 1.26-1.67-0.13-0.53-0.49-0.85-1.5-0.82-0.46 0.01-0.6-0.09-0.63-0.24-0.06-0.24 0.07-0.45 0.54-0.56 0.2-0.05 0.56-0.07 0.83-0.04l0.1-0.76c-0.42-0.05-0.83-0.05-1.25 0.05-0.71 0.18-1.43 0.75-1.23 1.56 0.18 0.72 0.68 0.84 1.15 0.86s0.92-0.06 1 0.29c0.09 0.35-0.22 0.49-0.52 0.57-0.27 0.07-0.66 0.07-0.91 0.05zm6.86-1.85c0.54 0 0.97-0.43 0.97-0.97s-0.44-0.97-0.97-0.97-0.97 0.44-0.97 0.97 0.44 0.97 0.97 0.97zm19.76 10.37c0.3 0.44 0.91 0.55 1.35 0.25s0.55-0.91 0.25-1.35-0.91-0.55-1.35-0.25-0.55 0.91-0.25 1.35zm-20.73 38.61c0 0.54 0.44 0.97 0.97 0.97s0.97-0.43 0.97-0.97-0.44-0.97-0.97-0.97-0.97 0.44-0.97 0.97zm-18.79-38.61c0.31-0.44 0.19-1.05-0.25-1.35s-1.05-0.2-1.35 0.25c-0.3 0.44-0.19 1.05 0.25 1.35 0.44 0.31 1.05 0.2 1.35-0.25z"
        fill="#fff" />
    </g>
  </g>
  <g fill="#fff">
    <path
      d="m117.5,48.26h5.48v.83h-.15c-1.69,0-1.95.74-1.95,1.76v5.27c0,4.72-3.43,5.61-5.95,5.61-3.81,0-6.22-1.65-6.22-4.89v-6.31c0-1.06-.29-1.44-1.48-1.44h-.36v-.83h6.63v.83h-.36c-.89,0-1.51.4-1.51,1.44v6.31c0,2.58,1.91,3.47,3.83,3.47,2.78,0,4.15-1.57,4.15-3.9v-5.14c0-1.5-.43-2.18-1.74-2.18h-.38v-.83Zm15.43,11.24c0,1.04.38,1.25,1.21,1.25v.68h-5v-.68c.87-.06,1.21-.66,1.21-2.39v-1.84c0-1.69-.47-2.35-1.31-2.35-.66,0-1.36.32-2.25.93v4.3c0,.95.4,1.35,1.25,1.35h.19v.68h-5.35v-.68h.13c.89,0,1.21-.38,1.21-1.48v-4.13c0-.47-.25-.74-1-.95l-.44-.13v-.51l3.62-1.23h.4v1.88c1.54-1.01,2.9-1.65,3.92-1.65,1.55,0,2.23,1.1,2.23,3.64v3.31Zm7.9,1.93h-5.29v-.68h.23c.87,0,1.18-.38,1.18-1.48v-4.06c0-.55-.13-.7-.72-.91l-.7-.26v-.51l3.62-1.2h.38v7.09c0,.87.35,1.33,1.29,1.33v.68Zm-.99-12.47c0,.85-.81,1.44-1.67,1.44-.98,0-1.69-.62-1.69-1.44,0-.76.8-1.44,1.69-1.44.97,0,1.67.64,1.67,1.44Zm1.23,3.83h5.38v.68h-.74c-.45,0-.63.4-.27,1.18l1.88,4.22,1.65-3.73c.49-1.1.24-1.52-1.25-1.67v-.68h4.21v.68c-1.1.1-1.37.38-1.78,1.27l-3.02,6.84h-1.27l-3.15-6.79c-.4-.87-.7-1.21-1.63-1.31v-.68Zm19.39,6.18c-1.19,1.67-2.9,2.69-4.53,2.69-2.31,0-3.87-1.78-3.87-4.34,0-2.8,1.88-4.77,4.53-4.77,1.12,0,2.01.36,2.66,1.02,1.25,1.25.66,2.43,1.4,2.82v.61h-5.86c.17,1.76,1.35,3.09,2.6,3.09.78,0,1.54-.44,2.58-1.52l.49.41Zm-2.73-2.8c-.02-1.63-.59-2.62-1.5-2.62s-1.65,1.12-1.5,2.62h3.01Zm9.93,5.25h-5.88v-.68h.15c.87,0,1.18-.38,1.18-1.48v-3.45c0-.95-.13-1.16-.76-1.42l-.57-.23v-.53l3.47-1.31h.45v2.37h.05c.78-1.52,1.12-2.14,1.84-2.14.15,0,.32.02.42.06l1.67.62c-.25.89-.59,1.65-1.01,2.24-.66-.25-1.44-.53-1.72-.53-.42,0-.78.29-1.25.95v3.43c0,1.02.32,1.42,1.42,1.42h.55v.68Zm3.35-2.5h.68c.36,1.19,1.29,1.82,2.2,1.82.59,0,1.1-.45,1.1-.97,0-1.46-3.97-1.97-3.97-4.53,0-1.61,1.33-2.69,3.32-2.69.81,0,1.49.13,2.37.45l.04,2.26h-.68c-.38-1.16-1.08-1.8-1.99-1.8-.55,0-.97.34-.97.8,0,1.74,4.17,1.8,4.17,4.7,0,1.56-1.12,2.67-2.75,2.67-1.46,0-1.95-.3-2.25-.3-.13,0-.25.09-.42.28h-.61l-.23-2.69Zm13.29,2.5h-5.29v-.68h.24c.87,0,1.18-.38,1.18-1.48v-4.06c0-.55-.12-.7-.72-.91l-.7-.26v-.51l3.62-1.2h.38v7.09c0,.87.36,1.33,1.29,1.33v.68Zm-1-12.47c0,.85-.8,1.44-1.67,1.44-.97,0-1.69-.62-1.69-1.44,0-.76.8-1.44,1.69-1.44.97,0,1.67.64,1.67,1.44Zm5.78,10.12c0,.78.36,1.12.97,1.12.51,0,.99-.32,1.61-1.06l.3.6c-.63,1.14-1.9,1.92-3.07,1.92-1.44,0-2.39-.81-2.39-2.62v-5.08h-1.12v-.55c1.27-.53,2.71-2.07,3.09-3.26h.62v2.65h2.77l-.32,1.16h-2.45v5.13Zm12.36-.11c-1.18,1.67-2.9,2.69-4.53,2.69-2.3,0-3.87-1.78-3.87-4.34,0-2.8,1.89-4.77,4.53-4.77,1.13,0,2.01.36,2.67,1.02,1.25,1.25.66,2.43,1.4,2.82v.61h-5.86c.17,1.76,1.35,3.09,2.6,3.09.79,0,1.55-.44,2.58-1.52l.49.41Zm-2.73-2.8c-.02-1.63-.59-2.62-1.5-2.62s-1.66,1.12-1.5,2.62h3Zm9.19,5.25h-5.29v-.68h.23c.87,0,1.18-.38,1.18-1.48v-4.06c0-.55-.13-.7-.72-.91l-.7-.26v-.51l3.62-1.2h.38v7.09c0,.87.36,1.33,1.29,1.33v.68Zm-1-12.47c0,.85-.81,1.44-1.67,1.44-.97,0-1.69-.62-1.69-1.44,0-.76.8-1.44,1.69-1.44.97,0,1.67.64,1.67,1.44Zm5.78,10.12c0,.78.36,1.12.97,1.12.51,0,1-.32,1.61-1.06l.29.6c-.63,1.14-1.9,1.92-3.07,1.92-1.44,0-2.39-.81-2.39-2.62v-5.08h-1.12v-.55c1.27-.53,2.71-2.07,3.09-3.26h.61v2.65h2.77l-.32,1.16h-2.45v5.13Z" />
    <path
      d="m117.5,66.26h5.49v.82h-.15c-1.69,0-1.95.74-1.95,1.76v5.27c0,4.72-3.43,5.61-5.95,5.61-3.81,0-6.22-1.65-6.22-4.89v-6.31c0-1.06-.29-1.44-1.48-1.44h-.36v-.82h6.63v.82h-.36c-.89,0-1.5.4-1.5,1.44v6.31c0,2.58,1.9,3.47,3.83,3.47,2.78,0,4.15-1.56,4.15-3.89v-5.14c0-1.5-.43-2.18-1.74-2.18h-.38v-.82Zm8.85,10.82c0,.78.36,1.12.97,1.12.51,0,.99-.32,1.61-1.06l.3.59c-.64,1.14-1.91,1.93-3.07,1.93-1.44,0-2.4-.81-2.4-2.62v-5.08h-1.12v-.56c1.27-.53,2.71-2.07,3.09-3.26h.62v2.65h2.77l-.32,1.17h-2.45v5.12Zm9.74,2.35h-5.89v-.68h.15c.87,0,1.18-.38,1.18-1.48v-3.45c0-.95-.13-1.17-.76-1.42l-.57-.24v-.53l3.47-1.31h.45v2.37h.04c.78-1.52,1.12-2.14,1.84-2.14.15,0,.32.02.42.06l1.67.62c-.25.89-.59,1.65-1.01,2.24-.66-.25-1.44-.53-1.72-.53-.42,0-.78.3-1.25.95v3.43c0,1.02.32,1.42,1.42,1.42h.55v.68Zm11.22-2.45c-1.18,1.67-2.9,2.69-4.53,2.69-2.31,0-3.87-1.78-3.87-4.34,0-2.79,1.89-4.76,4.53-4.76,1.13,0,2.01.36,2.67,1.02,1.25,1.25.66,2.43,1.4,2.81v.61h-5.86c.17,1.76,1.35,3.09,2.6,3.09.78,0,1.54-.44,2.58-1.53l.48.4Zm-2.73-2.79c-.02-1.63-.59-2.62-1.51-2.62-.87,0-1.65,1.12-1.5,2.62h3.01Zm12.95,3.21c-.97,1.48-2.46,2.26-4.32,2.26-2.58,0-4.45-1.76-4.45-4.19,0-2.77,2.39-4.91,5.48-4.91,1.82,0,3.2.76,3.2,1.8,0,.63-.42,1.06-1.08,1.06-1.48,0-1.79-1.89-3.02-1.89-1.06,0-1.78,1.29-1.78,3.19,0,2.29,1.08,3.83,2.65,3.83.96,0,1.84-.48,2.71-1.5l.61.34Zm4.59-.1c0,1.33.36,1.46,1.1,1.46h.21v.68h-5.36v-.68h.3c1.08,0,1.16-.42,1.16-1.55v-9.25c0-.61-.11-.76-.68-.95l-.61-.21v-.49l3.37-1.04h.51v6.9c1.19-.82,2.71-1.61,3.81-1.61,1.55,0,2.31,1.25,2.31,3.74v2.8c0,1.25.15,1.65.95,1.65h.21v.68h-4.99v-.68h.17c.89,0,1.08-.34,1.08-1.55v-3.2c0-1.14-.53-1.86-1.37-1.86-.57,0-1.42.32-2.16.8v4.34Zm11.9-.21c0,.78.36,1.12.97,1.12.51,0,.99-.32,1.61-1.06l.3.59c-.64,1.14-1.91,1.93-3.07,1.93-1.44,0-2.39-.81-2.39-2.62v-5.08h-1.12v-.56c1.27-.53,2.71-2.07,3.09-3.26h.62v2.65h2.77l-.31,1.17h-2.46v5.12Z" />
    <path
      d="m364.71,58.38c-.93-.57-1.64-1.37-2.12-2.4-.48-1.03-.72-2.24-.72-3.64s.28-2.53.85-3.56c.56-1.03,1.34-1.83,2.32-2.4.98-.57,2.09-.85,3.31-.85.92,0,2.03.14,3.33.43l.59.11-.18,3.24h-1.21l-.45-2.29c-.17-.14-.46-.27-.87-.37-.41-.1-.92-.15-1.52-.15-.77,0-1.45.22-2.05.66-.6.44-1.07,1.08-1.41,1.94-.34.85-.51,1.87-.51,3.06s.15,2.15.45,3.08c.3.92.76,1.66,1.37,2.21.61.55,1.37.82,2.27.82.64,0,1.12-.05,1.47-.16.34-.11.63-.26.87-.47l.76-1.76,1.13.14-.43,2.56c-.25.01-.62.1-1.12.25-.43.13-.85.24-1.25.31-.4.08-.9.12-1.5.12-1.32,0-2.45-.29-3.38-.86Z" />
    <path
      d="m374.95,57.81c-.76-.95-1.14-2.21-1.14-3.8,0-1.04.2-1.96.59-2.75s.95-1.4,1.67-1.84c.71-.43,1.53-.65,2.44-.65,1.12,0,1.98.31,2.6.93.62.62.94,1.5.98,2.65,0,.73-.04,1.29-.13,1.67h-6.19c.02,1.19.3,2.15.83,2.87.53.73,1.28,1.09,2.25,1.09.48,0,.98-.09,1.5-.26.52-.17.93-.38,1.22-.62l.34.79c-.35.36-.86.67-1.55.94-.68.26-1.38.4-2.09.4-1.45,0-2.56-.47-3.32-1.42Zm5.16-4.73c.04-.25.05-.51.05-.77-.01-.78-.18-1.4-.5-1.85-.32-.45-.82-.67-1.5-.67s-1.25.25-1.67.76-.65,1.35-.71,2.54h4.32Z" />
    <path
      d="m384.71,50.43l-1.3-.32v-.97l2.57-.32h.05l.38.32v.76l-.02.43c.43-.38,1-.73,1.71-1.04s1.39-.47,2.03-.47c.76,0,1.34.14,1.75.43s.7.73.87,1.32c.17.59.25,1.4.25,2.4v5.04l1.26.13v.9h-4.27v-.88l1.12-.14v-5.06c0-.71-.05-1.26-.14-1.67-.1-.4-.28-.7-.54-.9-.26-.2-.65-.3-1.15-.3-.43,0-.89.11-1.39.32-.49.22-.93.47-1.31.76v6.82l1.22.16v.88h-4.25v-.88l1.13-.16v-7.56Z" />
    <path
      d="m397.13,58.75c-.34-.31-.5-.85-.5-1.6v-6.91h-1.3v-.81c.06-.01.23-.05.5-.13.28-.07.46-.14.56-.2.19-.11.34-.32.45-.65.1-.23.21-.59.34-1.1.13-.5.21-.8.23-.9h1.06l.04,2.59h3.01v1.19h-3.01v5.53c0,.68.02,1.16.06,1.44.04.28.13.46.27.54.14.08.38.13.71.13s.68-.04,1.07-.13.69-.17.91-.27l.27.81c-.29.22-.75.43-1.4.63-.64.2-1.23.31-1.75.31-.68,0-1.19-.16-1.53-.47Z" />
    <path
      d="m402.95,58.15l1.35-.11v-7.61l-1.3-.32v-.97l2.48-.32h.04l.4.32v.32l-.05,1.4h.05c.12-.2.34-.47.65-.79.31-.32.71-.62,1.21-.89s1.03-.4,1.6-.4c.24,0,.44.03.59.09v2.02c-.08-.06-.22-.12-.41-.17-.19-.05-.39-.08-.62-.08-1,0-1.92.31-2.77.92v6.48l2.29.14v.86h-5.51v-.88Z" />
    <path
      d="m412.26,57.81c-.76-.95-1.14-2.21-1.14-3.8,0-1.04.2-1.96.59-2.75s.95-1.4,1.67-1.84c.71-.43,1.53-.65,2.44-.65,1.12,0,1.98.31,2.6.93.62.62.94,1.5.98,2.65,0,.73-.04,1.29-.13,1.67h-6.19c.02,1.19.3,2.15.83,2.87.53.73,1.28,1.09,2.25,1.09.48,0,.98-.09,1.5-.26.52-.17.93-.38,1.22-.62l.34.79c-.35.36-.86.67-1.55.94-.68.26-1.38.4-2.09.4-1.45,0-2.56-.47-3.32-1.42Zm5.16-4.73c.04-.25.05-.51.05-.77-.01-.78-.18-1.4-.5-1.85-.32-.45-.82-.67-1.5-.67s-1.25.25-1.67.76-.65,1.35-.71,2.54h4.32Z" />
    <path
      d="m426.65,50.23h-1.69v-.83l1.69-.34v-.85c0-.74.19-1.43.58-2.05.39-.62.9-1.12,1.53-1.48.63-.37,1.3-.55,2.01-.55.41,0,.76.05,1.06.16v1.8c-.11-.1-.32-.19-.64-.28-.32-.09-.67-.13-1.05-.13-.56,0-.98.15-1.23.44-.26.29-.39.8-.39,1.52v1.42h2.48v1.17h-2.48v7.78l2,.14v.88h-5.4v-.88l1.53-.16v-7.76Z" />
    <path
      d="m433.08,51.2c.44-.79,1.03-1.4,1.75-1.81s1.5-.62,2.33-.62c1.51,0,2.65.48,3.41,1.44.76.96,1.14,2.22,1.14,3.78,0,1.09-.22,2.03-.67,2.83-.44.79-1.03,1.39-1.76,1.8-.73.41-1.5.61-2.33.61-1.51,0-2.65-.48-3.41-1.44-.76-.96-1.14-2.22-1.14-3.78,0-1.08.22-2.02.67-2.81Zm5.9,5.98c.44-.68.67-1.7.67-3.04s-.2-2.39-.61-3.17c-.41-.78-1.06-1.17-1.96-1.17-.83,0-1.47.34-1.92,1.03-.45.68-.68,1.7-.68,3.04s.21,2.39.63,3.17c.42.78,1.07,1.17,1.96,1.17.83,0,1.46-.34,1.91-1.03Z" />
    <path
      d="m443.39,58.15l1.35-.11v-7.61l-1.3-.32v-.97l2.48-.32h.04l.4.32v.32l-.05,1.4h.05c.12-.2.34-.47.65-.79.31-.32.71-.62,1.21-.89s1.03-.4,1.6-.4c.24,0,.44.03.59.09v2.02c-.08-.06-.22-.12-.41-.17-.19-.05-.39-.08-.62-.08-1,0-1.92.31-2.77.92v6.48l2.29.14v.86h-5.51v-.88Z" />
    <path
      d="m326.15,68.38l-1.4-.22v-.9h2.36c.37,0,.91-.02,1.6-.07.7-.05,1.22-.07,1.57-.07,2.23,0,3.89.56,4.98,1.68s1.63,2.7,1.63,4.73c0,1.42-.28,2.67-.84,3.77-.56,1.1-1.34,1.95-2.35,2.56-1.01.61-2.17.92-3.47.92-.29,0-.78-.02-1.48-.07-.72-.05-1.26-.07-1.62-.07h-2.47v-.88l1.49-.18v-11.2Zm3.53,11.39h.54c.9-.01,1.69-.24,2.38-.68s1.23-1.11,1.61-1.99c.38-.88.58-1.95.58-3.21,0-1.9-.41-3.34-1.23-4.32-.82-.98-2.06-1.48-3.72-1.48-.35,0-.76.02-1.24.07-.2.04-.38.05-.54.05v11.41c.42.1.96.14,1.62.14Z" />
    <path
      d="m339.69,72.03l-1.37-.32v-.95l2.79-.34h.04l.41.32v8.87l1.44.14v.88h-4.77v-.88l1.46-.16v-7.56Zm-.14-3.51c-.19-.22-.29-.49-.29-.83,0-.38.12-.7.35-.95.23-.25.56-.38.96-.38s.71.11.9.32c.19.22.29.49.29.83,0,.41-.12.73-.35.97s-.56.36-.98.36h-.02c-.38,0-.67-.11-.86-.32Z" />
    <path
      d="m345.24,84.76c-.69-.49-1.04-1.15-1.04-2.01,0-.53.17-1.01.5-1.46.33-.44.72-.78,1.18-1.01-.55-.31-.83-.82-.83-1.51,0-.43.13-.84.38-1.22.25-.38.58-.68.99-.88-.6-.26-1.06-.64-1.38-1.13-.32-.49-.48-1.07-.48-1.75s.19-1.3.58-1.82c.39-.52.91-.91,1.55-1.19.64-.28,1.32-.41,2.04-.41,1.21,0,2.16.25,2.84.76.18-.18.46-.35.83-.52s.77-.25,1.19-.25h.61v1.58h-1.98c.29.44.43.96.43,1.55,0,.71-.18,1.33-.53,1.88-.35.55-.85.97-1.48,1.27-.63.3-1.34.45-2.13.45-.52,0-.98-.05-1.39-.16-.17.17-.31.35-.41.56-.11.2-.16.4-.16.59,0,.43.14.73.43.89.29.16.8.24,1.55.24h2.03c1.16,0,2.03.22,2.59.67.56.44.85,1.07.85,1.89,0,.68-.25,1.31-.74,1.88-.49.57-1.16,1.02-1.99,1.35-.83.33-1.74.49-2.71.49-1.54,0-2.65-.24-3.34-.73Zm5.17-.58c.52-.17.94-.43,1.27-.77.32-.34.49-.74.49-1.2,0-.54-.14-.93-.43-1.18-.29-.25-.85-.37-1.67-.37h-2.12c-.48,0-.86-.03-1.13-.09-.49.54-.74,1.15-.74,1.82s.2,1.18.61,1.53c.41.35,1.1.52,2.07.52.59,0,1.14-.09,1.67-.26Zm.35-10.52c0-.8-.18-1.4-.53-1.77-.35-.38-.88-.57-1.59-.57-.66,0-1.18.18-1.57.55-.38.37-.58.95-.58,1.75,0,.76.18,1.36.55,1.8.37.44.92.67,1.66.67,1.37,0,2.05-.81,2.05-2.43Z" />
    <path
      d="m356.6,72.03l-1.37-.32v-.95l2.79-.34h.04l.41.32v8.87l1.44.14v.88h-4.77v-.88l1.46-.16v-7.56Zm-.14-3.51c-.19-.22-.29-.49-.29-.83,0-.38.12-.7.35-.95.23-.25.56-.38.96-.38s.71.11.9.32c.19.22.29.49.29.83,0,.41-.12.73-.35.97s-.56.36-.98.36h-.02c-.38,0-.67-.11-.86-.32Z" />
    <path
      d="m362.74,80.35c-.34-.31-.5-.85-.5-1.6v-6.91h-1.3v-.81c.06-.01.23-.05.5-.13.28-.07.46-.14.56-.2.19-.11.34-.32.45-.65.1-.23.21-.59.34-1.1.13-.5.21-.8.23-.9h1.06l.04,2.59h3.01v1.19h-3.01v5.53c0,.68.02,1.16.06,1.44.04.28.13.46.27.54.14.08.38.13.71.13s.68-.04,1.07-.13.69-.17.91-.27l.27.81c-.29.22-.75.43-1.4.63-.64.2-1.23.31-1.75.31-.68,0-1.19-.16-1.53-.47Z" />
    <path
      d="m370.21,75.44c1.13-.53,2.56-.82,4.28-.85v-.5c0-.56-.06-1.01-.18-1.33-.12-.32-.33-.56-.62-.71-.29-.15-.71-.22-1.25-.22-.61,0-1.16.09-1.65.26-.49.17-.97.39-1.45.64l-.45-.94c.16-.13.44-.31.86-.52.42-.22.91-.41,1.46-.58.55-.17,1.1-.25,1.66-.25.85,0,1.53.12,2.02.35s.85.61,1.07,1.12c.22.52.32,1.21.32,2.07v5.78h1.06v.79c-.24.06-.54.12-.91.18-.37.06-.69.09-.96.09-.34,0-.56-.05-.68-.15-.12-.1-.18-.33-.18-.67v-.59c-.36.36-.8.69-1.32.99s-1.11.45-1.77.45c-.86,0-1.58-.25-2.15-.75-.57-.5-.85-1.22-.85-2.15,0-1.13.56-1.96,1.69-2.49Zm3.17,3.88c.41-.19.78-.42,1.12-.68v-3.1c-1.31,0-2.29.2-2.96.6-.67.4-1,.93-1,1.58s.16,1.12.48,1.43c.32.31.75.46,1.29.46.31,0,.67-.1,1.08-.29Z" />
    <path
      d="m379.93,67.21l-1.46-.2v-.77l2.9-.34h.04l.4.27v13.45l1.53.14v.88h-4.86v-.88l1.46-.16v-12.38Z" />
    <path
      d="m390.43,68.38l-1.42-.22v-.9h4.9v.9l-1.55.22v4.84h6.34v-4.84l-1.46-.22v-.9h4.82v.9l-1.42.22v11.2l1.42.18v.88h-4.84v-.88l1.48-.18v-5.24h-6.34v5.24l1.57.18v.88h-4.95v-.88l1.46-.18v-11.2Z" />
    <path
      d="m411.23,80.6c-.16-.13-.24-.35-.24-.65v-.61c-.4.4-.89.74-1.48,1.04-.59.3-1.19.45-1.79.45-1.12,0-1.91-.3-2.38-.9-.47-.6-.7-1.59-.7-2.97v-5.22l-1.01-.29v-.79l2.52-.23h.02l.34.22v6.17c0,.7.05,1.24.15,1.63.1.39.28.68.54.86.26.19.63.28,1.12.28s.93-.1,1.35-.31c.42-.2.79-.44,1.1-.72v-6.82l-1.3-.29v-.79l2.74-.23h.02l.41.22v9.07h1.08l-.02.81c-.34.08-.63.15-.87.2-.25.05-.53.07-.85.07s-.58-.07-.75-.2Z" />
    <path
      d="m415.14,79.75l1.1-.16v-7.56l-1.3-.32v-.97l2.57-.32.32.23.11.72-.02.58c.42-.38.99-.73,1.72-1.05.73-.32,1.38-.48,1.95-.48.65,0,1.17.11,1.57.32.4.22.7.55.9,1.01.38-.32.92-.63,1.61-.91.69-.28,1.33-.42,1.94-.42.74,0,1.33.14,1.75.42.42.28.72.72.89,1.31.17.59.26,1.39.26,2.38v5.06l1.3.16v.88h-4.28v-.88l1.12-.16v-5c0-.7-.05-1.25-.15-1.67-.1-.41-.29-.72-.58-.93-.28-.2-.69-.31-1.21-.31-.4,0-.82.09-1.26.26-.44.17-.82.38-1.13.62.11.47.16,1.13.16,2v5.02l1.28.16v.88h-4.36v-.88l1.19-.16v-5.04c0-.72-.04-1.28-.14-1.67-.09-.4-.26-.69-.51-.89-.25-.2-.64-.3-1.15-.3-.43,0-.89.11-1.38.32-.49.22-.91.47-1.27.76v6.82l1.21.16v.88h-4.19v-.88Z" />
    <path
      d="m434.76,75.44c1.13-.53,2.56-.82,4.28-.85v-.5c0-.56-.06-1.01-.18-1.33-.12-.32-.33-.56-.62-.71-.29-.15-.71-.22-1.25-.22-.61,0-1.16.09-1.65.26-.49.17-.97.39-1.45.64l-.45-.94c.16-.13.44-.31.86-.52.42-.22.91-.41,1.46-.58.55-.17,1.1-.25,1.66-.25.85,0,1.53.12,2.02.35s.85.61,1.07,1.12c.22.52.32,1.21.32,2.07v5.78h1.06v.79c-.24.06-.54.12-.91.18-.37.06-.69.09-.96.09-.34,0-.56-.05-.68-.15-.12-.1-.18-.33-.18-.67v-.59c-.36.36-.8.69-1.32.99s-1.11.45-1.77.45c-.86,0-1.58-.25-2.15-.75-.57-.5-.85-1.22-.85-2.15,0-1.13.56-1.96,1.69-2.49Zm3.17,3.88c.41-.19.78-.42,1.12-.68v-3.1c-1.31,0-2.29.2-2.96.6-.67.4-1,.93-1,1.58s.16,1.12.48,1.43c.32.31.75.46,1.29.46.31,0,.67-.1,1.08-.29Z" />
    <path
      d="m444.25,72.03l-1.3-.32v-.97l2.57-.32h.05l.38.32v.76l-.02.43c.43-.38,1-.73,1.71-1.04s1.39-.47,2.03-.47c.76,0,1.34.14,1.75.43s.7.73.87,1.32c.17.59.25,1.4.25,2.4v5.04l1.26.13v.9h-4.27v-.88l1.12-.14v-5.06c0-.71-.05-1.26-.14-1.67-.1-.4-.28-.7-.54-.9-.26-.2-.65-.3-1.15-.3-.43,0-.89.11-1.39.32-.49.22-.93.47-1.31.76v6.82l1.22.16v.88h-4.25v-.88l1.13-.16v-7.56Z" />
    <path
      d="m456.52,72.03l-1.37-.32v-.95l2.79-.34h.04l.41.32v8.87l1.44.14v.88h-4.77v-.88l1.46-.16v-7.56Zm-.14-3.51c-.19-.22-.29-.49-.29-.83,0-.38.12-.7.35-.95.23-.25.56-.38.96-.38s.71.11.9.32c.19.22.29.49.29.83,0,.41-.12.73-.35.97s-.56.36-.98.36h-.02c-.38,0-.67-.11-.86-.32Z" />
    <path
      d="m462.66,80.35c-.34-.31-.5-.85-.5-1.6v-6.91h-1.3v-.81c.06-.01.23-.05.5-.13.28-.07.46-.14.56-.2.19-.11.34-.32.45-.65.1-.23.21-.59.34-1.1.13-.5.21-.8.23-.9h1.06l.04,2.59h3.01v1.19h-3.01v5.53c0,.68.02,1.16.06,1.44.04.28.13.46.27.54.14.08.38.13.71.13s.68-.04,1.07-.13.69-.17.91-.27l.27.81c-.29.22-.75.43-1.4.63-.64.2-1.23.31-1.75.31-.68,0-1.19-.16-1.53-.47Z" />
    <path
      d="m469.84,72.03l-1.37-.32v-.95l2.79-.34h.04l.41.32v8.87l1.44.14v.88h-4.77v-.88l1.46-.16v-7.56Zm-.14-3.51c-.19-.22-.29-.49-.29-.83,0-.38.12-.7.35-.95.23-.25.56-.38.96-.38s.71.11.9.32c.19.22.29.49.29.83,0,.41-.12.73-.35.97s-.56.36-.98.36h-.02c-.38,0-.67-.11-.86-.32Z" />
    <path
      d="m475.54,79.41c-.76-.95-1.14-2.21-1.14-3.8,0-1.04.2-1.96.59-2.75s.95-1.4,1.67-1.84c.71-.43,1.53-.65,2.44-.65,1.12,0,1.98.31,2.6.93.62.62.94,1.5.98,2.65,0,.73-.04,1.29-.13,1.67h-6.19c.02,1.19.3,2.15.83,2.87.53.73,1.28,1.09,2.25,1.09.48,0,.98-.09,1.5-.26.52-.17.93-.38,1.22-.62l.34.79c-.35.36-.86.67-1.55.94-.68.26-1.38.4-2.09.4-1.45,0-2.56-.47-3.32-1.42Zm5.16-4.73c.04-.25.05-.51.05-.77-.01-.78-.18-1.4-.5-1.85-.32-.45-.82-.67-1.5-.67s-1.25.25-1.67.76-.65,1.35-.71,2.54h4.32Z" />
    <path
      d="m485.9,79.19c.12.18.38.34.77.49.39.14.8.22,1.23.22.68,0,1.19-.13,1.51-.4.32-.26.49-.63.49-1.1,0-.32-.1-.61-.31-.85-.2-.24-.49-.45-.85-.64s-.89-.41-1.57-.68c-.92-.35-1.6-.77-2.02-1.25-.43-.49-.64-1.12-.64-1.92,0-.53.16-.99.48-1.39.32-.4.76-.71,1.31-.93.56-.22,1.18-.33,1.86-.33.55,0,1.04.04,1.45.13.41.08.75.17,1,.25.25.08.42.14.5.16v2.23h-1.1l-.36-1.33c-.07-.14-.26-.27-.58-.37s-.66-.15-1.04-.15c-.54,0-.98.12-1.3.36-.33.24-.5.56-.5.97,0,.36.09.66.26.89s.39.42.66.57c.26.14.62.31,1.08.5l.36.14c.67.26,1.22.52,1.64.76.42.24.77.56,1.05.95.28.39.42.87.42,1.43,0,.89-.34,1.6-1.03,2.12-.69.53-1.64.79-2.83.79-.59,0-1.2-.08-1.85-.24s-1.17-.33-1.57-.5v-2.3h1.17l.32,1.4Z" />
  </g>
</svg>